<?xml version="1.0" encoding="utf-8"?>
<!-- Generator: Adobe Illustrator 16.0.0, SVG Export Plug-In . SVG Version: 6.00 Build 0)  -->
<!DOCTYPE svg PUBLIC "-//W3C//DTD SVG 1.1//EN" "http://www.w3.org/Graphics/SVG/1.1/DTD/svg11.dtd">
<svg version="1.1" id="Layer_1" xmlns="http://www.w3.org/2000/svg" xmlns:xlink="http://www.w3.org/1999/xlink" x="0px" y="0px"
	 width="1280px" height="434.566px" viewBox="0 0 1280 434.566" enable-background="new 0 0 1280 434.566" xml:space="preserve">
<g id="grid">
</g>
<g id="landing_page">
	<g>
		<g>
			<defs>
				<rect id="SVGID_1_" width="1280" height="434.566"/>
			</defs>
			<clipPath id="SVGID_2_">
				<use xlink:href="#SVGID_1_"  overflow="visible"/>
			</clipPath>
			<g clip-path="url(#SVGID_2_)">
				<circle fill="#64696C" cx="150.649" cy="14.2" r="11.468"/>
				<rect x="123.892" y="106.603" fill="#64696C" width="53.781" height="327.963"/>
				<rect x="104.381" y="14.2" fill="#798083" width="92.67" height="94.25"/>
				<rect x="96.604" y="31.731" fill="#4E5557" width="108.222" height="58"/>
				<rect x="96.604" y="47.024" fill="#FEF9C5" width="108.222" height="29.79"/>
				<rect x="146.827" y="162.231" fill="#4E4F55" width="7.777" height="11.599"/>
				<rect x="146.827" y="183.85" fill="#4E4F55" width="7.777" height="11.6"/>
				<rect x="146.827" y="205.731" fill="#4E4F55" width="7.777" height="11.599"/>
				<polygon fill="#4E5557" points="124.286,108.581 177.937,162.231 177.937,108.713 				"/>
				<polygon fill="#626C6E" points="104.646,88.94 123.627,107.79 197.709,107.79 197.709,89.205 				"/>
			</g>
		</g>
		<g>
			<defs>
				<rect id="SVGID_3_" width="1280" height="434.566"/>
			</defs>
			<clipPath id="SVGID_4_">
				<use xlink:href="#SVGID_3_"  overflow="visible"/>
			</clipPath>
			<rect x="146.756" y="204.808" clip-path="url(#SVGID_4_)" fill="#61768C" width="131.555" height="229.363"/>
		</g>
		<g>
			<defs>
				<rect id="SVGID_5_" width="1280" height="434.566"/>
			</defs>
			<clipPath id="SVGID_6_">
				<use xlink:href="#SVGID_5_"  overflow="visible"/>
			</clipPath>
			<g clip-path="url(#SVGID_6_)">
				<rect x="256.956" y="217.857" fill="#3D555F" width="8.437" height="8.437"/>
				<rect x="232.305" y="217.857" fill="#3D555F" width="8.438" height="8.437"/>
				<rect x="207.656" y="217.857" fill="#3D555F" width="8.436" height="8.437"/>
				<rect x="182.874" y="217.857" fill="#3D555F" width="8.438" height="8.437"/>
				<rect x="158.225" y="217.857" fill="#3D555F" width="8.436" height="8.437"/>
				<rect x="256.956" y="239.607" fill="#3D555F" width="8.437" height="8.437"/>
				<rect x="232.305" y="239.607" fill="#3D555F" width="8.438" height="8.437"/>
				<rect x="207.656" y="239.607" fill="#3D555F" width="8.436" height="8.437"/>
				<rect x="182.874" y="239.607" fill="#3D555F" width="8.438" height="8.437"/>
				<rect x="158.225" y="239.607" fill="#3D555F" width="8.436" height="8.437"/>
				<rect x="256.956" y="261.357" fill="#010101" width="8.437" height="8.437"/>
				<rect x="232.305" y="261.357" fill="#3D555F" width="8.438" height="8.437"/>
				<rect x="207.656" y="261.357" fill="#3D555F" width="8.436" height="8.437"/>
				<rect x="182.874" y="261.357" fill="#3D555F" width="8.438" height="8.437"/>
				<rect x="158.225" y="261.357" fill="#3D555F" width="8.436" height="8.437"/>
			</g>
		</g>
		<g>
			<defs>
				<rect id="SVGID_7_" width="1280" height="434.566"/>
			</defs>
			<clipPath id="SVGID_8_">
				<use xlink:href="#SVGID_7_"  overflow="visible"/>
			</clipPath>
			<rect x="359.114" y="79.845" clip-path="url(#SVGID_8_)" fill="#989898" width="47.72" height="27.022"/>
		</g>
		<g>
			<defs>
				<rect id="SVGID_9_" width="1280" height="434.566"/>
			</defs>
			<clipPath id="SVGID_10_">
				<use xlink:href="#SVGID_9_"  overflow="visible"/>
			</clipPath>
			<rect x="303.884" y="105.021" clip-path="url(#SVGID_10_)" fill="#CDCCCC" width="159.5" height="329.545"/>
		</g>
		<g>
			<defs>
				<rect id="SVGID_11_" width="1280" height="434.566"/>
			</defs>
			<clipPath id="SVGID_12_">
				<use xlink:href="#SVGID_11_"  overflow="visible"/>
			</clipPath>
			<g clip-path="url(#SVGID_12_)">
				<rect x="303.885" y="207.477" fill="#EEEEEE" width="38.228" height="73.819"/>
				<rect x="344.309" y="207.477" fill="#EEEEEE" width="38.229" height="73.819"/>
				<rect x="384.733" y="207.477" fill="#EEEEEE" width="38.227" height="73.819"/>
				<rect x="425.156" y="207.477" fill="#EEEEEE" width="38.228" height="73.819"/>
			</g>
		</g>
		<g>
			<defs>
				<rect id="SVGID_13_" width="1280" height="434.566"/>
			</defs>
			<clipPath id="SVGID_14_">
				<use xlink:href="#SVGID_13_"  overflow="visible"/>
			</clipPath>
			<g clip-path="url(#SVGID_14_)">
				<rect x="303.885" y="131.813" fill="#EEEEEE" width="38.228" height="72.5"/>
				<rect x="344.309" y="131.813" fill="#EEEEEE" width="38.229" height="72.5"/>
				<rect x="384.733" y="131.813" fill="#EEEEEE" width="38.227" height="72.5"/>
				<rect x="425.156" y="131.813" fill="#EEEEEE" width="38.228" height="72.5"/>
			</g>
		</g>
		<g>
			<defs>
				<rect id="SVGID_15_" width="1280" height="434.566"/>
			</defs>
			<clipPath id="SVGID_16_">
				<use xlink:href="#SVGID_15_"  overflow="visible"/>
			</clipPath>
			<rect x="303.885" y="284.295" clip-path="url(#SVGID_16_)" fill="#010101" width="38.228" height="73.816"/>
		</g>
		<g>
			<defs>
				<rect id="SVGID_17_" width="1280" height="434.566"/>
			</defs>
			<clipPath id="SVGID_18_">
				<use xlink:href="#SVGID_17_"  overflow="visible"/>
			</clipPath>
			<g clip-path="url(#SVGID_18_)">
				<rect x="344.309" y="284.295" fill="#EEEEEE" width="38.229" height="149.875"/>
				<rect x="384.733" y="284.295" fill="#EEEEEE" width="38.227" height="149.875"/>
				<rect x="425.156" y="284.295" fill="#EEEEEE" width="38.228" height="149.875"/>
			</g>
		</g>
		<g>
			<defs>
				<rect id="SVGID_19_" width="1280" height="434.566"/>
			</defs>
			<clipPath id="SVGID_20_">
				<use xlink:href="#SVGID_19_"  overflow="visible"/>
			</clipPath>
			<rect x="303.885" y="358.111" clip-path="url(#SVGID_20_)" fill="#010101" width="38.228" height="75.138"/>
		</g>
		<g>
			<defs>
				<rect id="SVGID_21_" width="1280" height="434.566"/>
			</defs>
			<clipPath id="SVGID_22_">
				<use xlink:href="#SVGID_21_"  overflow="visible"/>
			</clipPath>
			<polygon opacity="0.4" clip-path="url(#SVGID_22_)" fill="#64696C" enable-background="new    " points="463.269,434.566 
				351.339,434.566 351.339,242.771 463.269,354.025 			"/>
		</g>
		<g>
			<defs>
				<rect id="SVGID_23_" width="1280" height="434.566"/>
			</defs>
			<clipPath id="SVGID_24_">
				<use xlink:href="#SVGID_23_"  overflow="visible"/>
			</clipPath>
			<g clip-path="url(#SVGID_24_)">
				<rect x="236.523" y="243.825" fill="#CE6B40" width="115.211" height="190.346"/>
				<rect x="256.43" y="265.97" fill="#604D3D" width="17.662" height="17.666"/>
				<rect x="284.507" y="265.97" fill="#604D3D" width="17.662" height="17.666"/>
				<rect x="312.452" y="265.97" fill="#604D3D" width="17.663" height="17.666"/>
				<rect x="256.43" y="294.18" fill="#394139" width="17.662" height="17.665"/>
				<rect x="284.507" y="294.18" fill="#394139" width="17.662" height="17.665"/>
				<rect x="312.452" y="294.18" fill="#394139" width="17.663" height="17.665"/>
			</g>
		</g>
		<g>
			<defs>
				<rect id="SVGID_25_" width="1280" height="434.566"/>
			</defs>
			<clipPath id="SVGID_26_">
				<use xlink:href="#SVGID_25_"  overflow="visible"/>
			</clipPath>
			<g clip-path="url(#SVGID_26_)">
				<polygon fill="#483C5B" points="525.642,207.84 463.384,207.84 463.384,434.566 555.808,434.566 555.808,238.52 				"/>
				<g>
					<rect x="523.459" y="243.27" fill="#2F2D34" width="12.579" height="35.812"/>
					<rect x="502.921" y="243.27" fill="#2F2D34" width="12.579" height="35.812"/>
					<rect x="481.74" y="243.27" fill="#2F2D34" width="12.579" height="35.812"/>
					<rect x="523.459" y="286.527" fill="#2F2D34" width="12.579" height="35.814"/>
					<rect x="502.921" y="286.527" fill="#2F2D34" width="12.579" height="35.814"/>
					<rect x="481.74" y="286.527" fill="#2F2D34" width="12.579" height="35.814"/>
				</g>
				<polyline fill="#564769" points="555.808,207.84 525.642,207.84 555.808,238.52 				"/>
				<line fill="none" x1="555.808" y1="434.566" x2="555.808" y2="434.566"/>
			</g>
		</g>
		<g>
			<defs>
				<rect id="SVGID_27_" width="1280" height="434.566"/>
			</defs>
			<clipPath id="SVGID_28_">
				<use xlink:href="#SVGID_27_"  overflow="visible"/>
			</clipPath>
			<g clip-path="url(#SVGID_28_)">
				<rect x="515.5" y="336.182" fill="#CE6B40" width="115.209" height="98.385"/>
				<rect x="515.5" y="344.751" fill="#EEEEEE" width="53.004" height="19.979"/>
				<rect x="577.705" y="344.751" fill="#EEEEEE" width="53.004" height="19.979"/>
				<rect x="515.5" y="374.044" fill="#EEEEEE" width="53.004" height="19.979"/>
				<rect x="577.705" y="374.044" fill="#EEEEEE" width="53.004" height="19.979"/>
				<rect x="515.5" y="403.337" fill="#EEEEEE" width="53.004" height="19.979"/>
				<rect x="577.705" y="403.337" fill="#EEEEEE" width="53.004" height="19.979"/>
			</g>
		</g>
		<g>
			<defs>
				<rect id="SVGID_29_" width="1280" height="434.566"/>
			</defs>
			<clipPath id="SVGID_30_">
				<use xlink:href="#SVGID_29_"  overflow="visible"/>
			</clipPath>
			<g clip-path="url(#SVGID_30_)">
				<rect x="890.182" y="342.13" fill="#2F2D34" width="63.821" height="92.041"/>
				<path fill="#2F2D34" d="M1195.509,349.13H648.676V36.132h546.833V349.13z M662.676,335.129h518.833V50.132H662.676V335.129z"/>
				<rect x="655.676" y="43.132" fill="#2F2D34" width="532.833" height="298.998"/>
				<g>
					<g>
						<rect x="847.656" y="28.233" fill="#2F2D34" width="6.164" height="12.843"/>
						<rect x="895.227" y="28.233" fill="#2F2D34" width="6.164" height="12.843"/>
						<rect x="942.795" y="28.233" fill="#2F2D34" width="6.164" height="12.843"/>
						<rect x="990.363" y="28.233" fill="#2F2D34" width="6.166" height="12.843"/>
					</g>
					<g>
						<path fill="#2F2D34" d="M1017.648,20.527c0,4.238-4.5,7.707-10,7.707H836.537c-5.5,0-10-3.468-10-7.707
							c0-4.239,4.5-7.706,10-7.706h171.111C1013.148,12.821,1017.648,16.289,1017.648,20.527z"/>
					</g>
				</g>
			</g>
		</g>
		<g>
			<defs>
				<rect id="SVGID_31_" width="1280" height="434.566"/>
			</defs>
			<clipPath id="SVGID_32_">
				<use xlink:href="#SVGID_31_"  overflow="visible"/>
			</clipPath>
			<g clip-path="url(#SVGID_32_)">
				<g>
					<path fill="none" stroke="#FFFFFF" stroke-width="2" stroke-miterlimit="10" d="M206.38,12.008c0,0,0.678-0.145,1.966-0.346"/>
					<path fill="none" stroke="#FFFFFF" stroke-width="2" stroke-miterlimit="10" stroke-dasharray="3.9629,3.9629" d="
						M212.271,11.147c19.153-2.089,81.798-3.386,140.1,57.086"/>
					<path fill="none" stroke="#FFFFFF" stroke-width="2" stroke-miterlimit="10" d="M353.75,69.676
						c0.457,0.482,0.914,0.968,1.37,1.458"/>
				</g>
			</g>
		</g>
		<g>
			<defs>
				<rect id="SVGID_33_" width="1280" height="434.566"/>
			</defs>
			<clipPath id="SVGID_34_">
				<use xlink:href="#SVGID_33_"  overflow="visible"/>
			</clipPath>
			<path clip-path="url(#SVGID_34_)" fill="none" stroke="#FFFFFF" stroke-width="2" stroke-miterlimit="10" d="M206.642,14.199
				c0,5.297-4.294,9.591-9.591,9.591l0,0c-5.297,0-9.591-4.294-9.591-9.591l0,0c0-5.297,4.294-9.591,9.591-9.591l0,0
				C202.348,4.608,206.642,8.902,206.642,14.199L206.642,14.199z"/>
		</g>
		<g>
			<defs>
				<rect id="SVGID_35_" width="1280" height="434.566"/>
			</defs>
			<clipPath id="SVGID_36_">
				<use xlink:href="#SVGID_35_"  overflow="visible"/>
			</clipPath>
			<path clip-path="url(#SVGID_36_)" fill="none" stroke="#FFFFFF" stroke-width="2" stroke-miterlimit="10" d="M368.705,79.844
				c0,5.297-4.294,9.591-9.591,9.591l0,0c-5.297,0-9.591-4.294-9.591-9.591l0,0c0-5.296,4.294-9.591,9.591-9.591l0,0
				C364.411,70.253,368.705,74.548,368.705,79.844L368.705,79.844z"/>
		</g>
		<g>
			<defs>
				<rect id="SVGID_37_" width="1280" height="434.566"/>
			</defs>
			<clipPath id="SVGID_38_">
				<use xlink:href="#SVGID_37_"  overflow="visible"/>
			</clipPath>
			<path clip-path="url(#SVGID_38_)" fill="none" stroke="#FFFFFF" stroke-width="2" stroke-miterlimit="10" d="M472.975,105.021
				c0,5.297-4.294,9.591-9.591,9.591l0,0c-5.297,0-9.591-4.294-9.591-9.591l0,0c0-5.296,4.294-9.591,9.591-9.591l0,0
				C468.681,95.43,472.975,99.725,472.975,105.021L472.975,105.021z"/>
		</g>
		<g>
			<defs>
				<rect id="SVGID_39_" width="1280" height="434.566"/>
			</defs>
			<clipPath id="SVGID_40_">
				<use xlink:href="#SVGID_39_"  overflow="visible"/>
			</clipPath>
			<path clip-path="url(#SVGID_40_)" fill="none" stroke="#FFFFFF" stroke-width="2" stroke-miterlimit="10" d="M658.267,36.132
				c0,5.297-4.294,9.59-9.591,9.59l0,0c-5.297,0-9.591-4.293-9.591-9.59l0,0c0-5.296,4.294-9.591,9.591-9.591l0,0
				C653.973,26.541,658.267,30.835,658.267,36.132L658.267,36.132z"/>
		</g>
		<g>
			<defs>
				<rect id="SVGID_41_" width="1280" height="434.566"/>
			</defs>
			<clipPath id="SVGID_42_">
				<use xlink:href="#SVGID_41_"  overflow="visible"/>
			</clipPath>
			<path clip-path="url(#SVGID_42_)" fill="none" stroke="#FFFFFF" stroke-width="2" stroke-miterlimit="10" d="M287.901,204.808
				c0,5.297-4.294,9.591-9.591,9.591l0,0c-5.297,0-9.591-4.294-9.591-9.591l0,0c0-5.297,4.294-9.591,9.591-9.591l0,0
				C283.607,195.217,287.901,199.511,287.901,204.808L287.901,204.808z"/>
		</g>
		<g>
			<defs>
				<rect id="SVGID_43_" width="1280" height="434.566"/>
			</defs>
			<clipPath id="SVGID_44_">
				<use xlink:href="#SVGID_43_"  overflow="visible"/>
			</clipPath>
			
				<path clip-path="url(#SVGID_44_)" fill="none" stroke="#FFFFFF" stroke-width="2" stroke-miterlimit="10" stroke-dasharray="4,4" d="
				M204.826,19.805c0,0,70.31,57.008,73.484,175.412"/>
		</g>
		<g>
			<defs>
				<rect id="SVGID_45_" width="1280" height="434.566"/>
			</defs>
			<clipPath id="SVGID_46_">
				<use xlink:href="#SVGID_45_"  overflow="visible"/>
			</clipPath>
			
				<path clip-path="url(#SVGID_46_)" fill="none" stroke="#FFFFFF" stroke-width="2" stroke-miterlimit="10" stroke-dasharray="4,4" d="
				M470.867,99.03c0,0,87.167-52.426,168.218-62.898"/>
		</g>
		<g>
			<defs>
				<rect id="SVGID_47_" width="1280" height="434.566"/>
			</defs>
			<clipPath id="SVGID_48_">
				<use xlink:href="#SVGID_47_"  overflow="visible"/>
			</clipPath>
			<polygon opacity="0.2" clip-path="url(#SVGID_48_)" enable-background="new    " points="911.113,349.13 890.182,349.13 
				890.182,434.566 954.003,434.566 954.003,392.02 			"/>
		</g>
	</g>
</g>
<g id="project_page">
</g>
<g id="Search">
</g>
<g id="user_page">
</g>
<g id="dataset_page">
</g>
<g id="styles">
</g>
<g id="Layer_1_1_">
</g>
</svg>
